<svg xmlns="http://www.w3.org/2000/svg" width="1020" height="640" viewBox="0 0 1020 640" font-family="'Microsoft YaHei','Noto Sans CJK SC','WenQuanYi Zen Hei',sans-serif">
<defs>
<marker id="au" viewBox="0 0 10 10" refX="9" refY="5" markerWidth="7" markerHeight="7" orient="auto-start-reverse"><path d="M0,0 L10,5 L0,10 z" fill="#1f6fb4"/></marker>
<marker id="al" viewBox="0 0 10 10" refX="9" refY="5" markerWidth="7" markerHeight="7" orient="auto-start-reverse"><path d="M0,0 L10,5 L0,10 z" fill="#c1452b"/></marker>
<marker id="ak" viewBox="0 0 10 10" refX="9" refY="5" markerWidth="6" markerHeight="6" orient="auto-start-reverse"><path d="M0,0 L10,5 L0,10 z" fill="#6b6b6b"/></marker>
<marker id="ag" viewBox="0 0 10 10" refX="9" refY="5" markerWidth="7" markerHeight="7" orient="auto-start-reverse"><path d="M0,0 L10,5 L0,10 z" fill="#12862f"/></marker>
</defs>
<rect width="100%" height="100%" fill="#ffffff"/>
<text x="510" y="32" text-anchor="middle" font-size="20" font-weight="bold" fill="#1c1c1c">图1  TG700 ±Y 单向倾角方案 (COAX16_AY) — 俯视图, 机头朝上</text>
<text x="510" y="55" text-anchor="middle" font-size="14" fill="#6b6b6b">前排 4 组：上层朝左 / 下层朝右。　后排 4 组：上层朝右 / 下层朝左。　内外环装法相同</text>
<line x1="194.4" y1="190.1" x2="825.6" y2="190.1" stroke="#e6e6e6" stroke-width="11"/>
<line x1="194.4" y1="469.9" x2="825.6" y2="469.9" stroke="#e6e6e6" stroke-width="11"/>
<line x1="510.0" y1="150.1" x2="510.0" y2="509.9" stroke="#d4d4d4" stroke-width="2" stroke-dasharray="7 5"/>
<line x1="510.0" y1="306.0" x2="510.0" y2="154.1" stroke="#6b6b6b" stroke-width="1.8" marker-end="url(#ak)"/>
<text x="518.0" y="150.1" text-anchor="start" font-size="12" fill="#6b6b6b" font-weight="normal">+X 机头</text>
<line x1="534.0" y1="330.0" x2="622.0" y2="330.0" stroke="#6b6b6b" stroke-width="1.8" marker-end="url(#ak)"/>
<text x="628.0" y="334.0" text-anchor="start" font-size="12" fill="#6b6b6b" font-weight="normal">+Y 右</text>
<circle cx="510.0" cy="330.0" r="4.5" fill="#6b6b6b"/>
<text x="500.0" y="350.0" text-anchor="end" font-size="12" fill="#6b6b6b" font-weight="normal">CG</text>
<circle cx="795.6" cy="190.1" r="34.0" fill="#f2f2f2" stroke="#b8b8b8" stroke-width="2"/>
<line x1="789.6" y1="179.1" x2="743.6" y2="179.1" stroke="#1f6fb4" stroke-width="3.2" marker-end="url(#au)"/>
<line x1="801.6" y1="203.1" x2="847.6" y2="203.1" stroke="#c1452b" stroke-width="3.2" marker-end="url(#al)"/>
<text x="795.6" y="130.1" text-anchor="middle" font-size="15" fill="#1c1c1c" font-weight="bold">P1 外</text>
<text x="795.6" y="148.1" text-anchor="middle" font-size="11" fill="#6b6b6b" font-weight="normal">上 CW / 下 CCW</text>
<circle cx="644.4" cy="190.1" r="34.0" fill="#f2f2f2" stroke="#b8b8b8" stroke-width="2"/>
<line x1="638.4" y1="179.1" x2="592.4" y2="179.1" stroke="#1f6fb4" stroke-width="3.2" marker-end="url(#au)"/>
<line x1="650.4" y1="203.1" x2="696.4" y2="203.1" stroke="#c1452b" stroke-width="3.2" marker-end="url(#al)"/>
<text x="644.4" y="130.1" text-anchor="middle" font-size="15" fill="#1c1c1c" font-weight="bold">P2 内</text>
<text x="644.4" y="148.1" text-anchor="middle" font-size="11" fill="#6b6b6b" font-weight="normal">上 CW / 下 CCW</text>
<circle cx="375.6" cy="190.1" r="34.0" fill="#f2f2f2" stroke="#b8b8b8" stroke-width="2"/>
<line x1="369.6" y1="179.1" x2="323.6" y2="179.1" stroke="#1f6fb4" stroke-width="3.2" marker-end="url(#au)"/>
<line x1="381.6" y1="203.1" x2="427.6" y2="203.1" stroke="#c1452b" stroke-width="3.2" marker-end="url(#al)"/>
<text x="375.6" y="130.1" text-anchor="middle" font-size="15" fill="#1c1c1c" font-weight="bold">P3 内</text>
<text x="375.6" y="148.1" text-anchor="middle" font-size="11" fill="#6b6b6b" font-weight="normal">上 CW / 下 CCW</text>
<circle cx="224.4" cy="190.1" r="34.0" fill="#f2f2f2" stroke="#b8b8b8" stroke-width="2"/>
<line x1="218.4" y1="179.1" x2="172.4" y2="179.1" stroke="#1f6fb4" stroke-width="3.2" marker-end="url(#au)"/>
<line x1="230.4" y1="203.1" x2="276.4" y2="203.1" stroke="#c1452b" stroke-width="3.2" marker-end="url(#al)"/>
<text x="224.4" y="130.1" text-anchor="middle" font-size="15" fill="#1c1c1c" font-weight="bold">P4 外</text>
<text x="224.4" y="148.1" text-anchor="middle" font-size="11" fill="#6b6b6b" font-weight="normal">上 CW / 下 CCW</text>
<circle cx="795.6" cy="469.9" r="34.0" fill="#f2f2f2" stroke="#b8b8b8" stroke-width="2"/>
<line x1="801.6" y1="458.9" x2="847.6" y2="458.9" stroke="#1f6fb4" stroke-width="3.2" marker-end="url(#au)"/>
<line x1="789.6" y1="482.9" x2="743.6" y2="482.9" stroke="#c1452b" stroke-width="3.2" marker-end="url(#al)"/>
<text x="795.6" y="523.9" text-anchor="middle" font-size="15" fill="#1c1c1c" font-weight="bold">P5 外</text>
<text x="795.6" y="541.9" text-anchor="middle" font-size="11" fill="#6b6b6b" font-weight="normal">上 CW / 下 CCW</text>
<circle cx="644.4" cy="469.9" r="34.0" fill="#f2f2f2" stroke="#b8b8b8" stroke-width="2"/>
<line x1="650.4" y1="458.9" x2="696.4" y2="458.9" stroke="#1f6fb4" stroke-width="3.2" marker-end="url(#au)"/>
<line x1="638.4" y1="482.9" x2="592.4" y2="482.9" stroke="#c1452b" stroke-width="3.2" marker-end="url(#al)"/>
<text x="644.4" y="523.9" text-anchor="middle" font-size="15" fill="#1c1c1c" font-weight="bold">P6 内</text>
<text x="644.4" y="541.9" text-anchor="middle" font-size="11" fill="#6b6b6b" font-weight="normal">上 CW / 下 CCW</text>
<circle cx="375.6" cy="469.9" r="34.0" fill="#f2f2f2" stroke="#b8b8b8" stroke-width="2"/>
<line x1="381.6" y1="458.9" x2="427.6" y2="458.9" stroke="#1f6fb4" stroke-width="3.2" marker-end="url(#au)"/>
<line x1="369.6" y1="482.9" x2="323.6" y2="482.9" stroke="#c1452b" stroke-width="3.2" marker-end="url(#al)"/>
<text x="375.6" y="523.9" text-anchor="middle" font-size="15" fill="#1c1c1c" font-weight="bold">P7 内</text>
<text x="375.6" y="541.9" text-anchor="middle" font-size="11" fill="#6b6b6b" font-weight="normal">上 CW / 下 CCW</text>
<circle cx="224.4" cy="469.9" r="34.0" fill="#f2f2f2" stroke="#b8b8b8" stroke-width="2"/>
<line x1="230.4" y1="458.9" x2="276.4" y2="458.9" stroke="#1f6fb4" stroke-width="3.2" marker-end="url(#au)"/>
<line x1="218.4" y1="482.9" x2="172.4" y2="482.9" stroke="#c1452b" stroke-width="3.2" marker-end="url(#al)"/>
<text x="224.4" y="523.9" text-anchor="middle" font-size="15" fill="#1c1c1c" font-weight="bold">P8 外</text>
<text x="224.4" y="541.9" text-anchor="middle" font-size="11" fill="#6b6b6b" font-weight="normal">上 CW / 下 CCW</text>
<rect x="24" y="554.0" width="972" height="58" rx="8" fill="#fafafa" stroke="#dddddd"/>
<text x="40.0" y="573.0" text-anchor="start" font-size="13" fill="#1c1c1c" font-weight="bold">图例:</text>
<line x1="86.0" y1="568.0" x2="132.0" y2="568.0" stroke="#1f6fb4" stroke-width="3.2" marker-end="url(#au)"/>
<text x="140.0" y="573.0" text-anchor="start" font-size="13" fill="#1f6fb4" font-weight="normal">上层 (CW) 倾角方向</text>
<line x1="300.0" y1="568.0" x2="346.0" y2="568.0" stroke="#c1452b" stroke-width="3.2" marker-end="url(#al)"/>
<text x="354.0" y="573.0" text-anchor="start" font-size="13" fill="#c1452b" font-weight="normal">下层 (CCW) 倾角方向</text>
<text x="560.0" y="573.0" text-anchor="start" font-size="13" fill="#1c1c1c" font-weight="normal">桨与 ESC 全部不动, 只重排 16 个倾角座</text>
<text x="40.0" y="597.0" text-anchor="start" font-size="13" fill="#1c1c1c" font-weight="normal">口诀：同一排的 4 组装法完全一样；前后排相反；同组上下相反。不区分内外环。</text>
</svg>